<svg width="100" height="16" viewBox="0 0 100 16" fill="none" xmlns="http://www.w3.org/2000/svg">
<path d="M10 5.744L8 0L6 5.744H0L4.89 9.572L2.968 15.488L8 11.832L13.032 15.488L11.11 9.572L16 5.744H10Z" fill="#FFD381"/>
<path d="M31 5.744L29 0L27 5.744H21L25.89 9.572L23.968 15.488L29 11.832L34.032 15.488L32.11 9.572L37 5.744H31Z" fill="#FFD381"/>
<path d="M52 5.744L50 0L48 5.744H42L46.89 9.572L44.968 15.488L50 11.832L55.032 15.488L53.11 9.572L58 5.744H52Z" fill="#FFD381"/>
<path d="M73 5.744L71 0L69 5.744H63L67.89 9.572L65.968 15.488L71 11.832L76.032 15.488L74.11 9.572L79 5.744H73Z" fill="#FFD381"/>
<g opacity="0.3">
<path d="M94 5.744L92 0L90 5.744H84L88.89 9.572L86.968 15.488L92 11.832L97.032 15.488L95.11 9.572L100 5.744H94Z" fill="#384F7D" fill-opacity="0.65"/>
</g>
</svg>
