<svg width="22" height="10" viewBox="0 0 22 10" fill="none" xmlns="http://www.w3.org/2000/svg">
<path opacity="0.35" d="M0.603027 2.66911C0.603027 1.47249 1.57308 0.502441 2.76969 0.502441H17.2379C18.4345 0.502441 19.4046 1.47249 19.4046 2.66911V7.33343C19.4046 8.53005 18.4345 9.5001 17.2379 9.5001H2.76969C1.57308 9.5001 0.603027 8.53005 0.603027 7.33343V2.66911Z" stroke="white"/>
<path opacity="0.4" d="M20.8047 3.23682V6.7654C21.529 6.46655 22 5.77134 22 5.00111C22 4.23088 21.529 3.53567 20.8047 3.23682Z" fill="white"/>
<path d="M1.90308 3.09994C1.90308 2.36356 2.50003 1.7666 3.23641 1.7666H16.771C17.5074 1.7666 18.1044 2.36356 18.1044 3.09993V6.90234C18.1044 7.63872 17.5074 8.23567 16.771 8.23567H3.23641C2.50003 8.23567 1.90308 7.63872 1.90308 6.90234V3.09994Z" fill="white"/>
</svg>
