<svg width="94" height="49" viewBox="0 0 94 35" fill="none" xmlns="http://www.w3.org/2000/svg">
<path d="M47.04 5V11" stroke="#384F7D" stroke-miterlimit="10"/>
<path d="M57.0667 5H60.8267V21H33.2534V5H37.0134" stroke="#384F7D" stroke-miterlimit="10" stroke-linecap="square"/>
<path d="M49.5468 3C48.1618 3 47.0401 3.895 47.0401 5C47.0401 3.895 45.9184 3 44.5334 3H37.0134V17H44.5334C45.9184 17 47.0401 17.895 47.0401 19C47.0401 17.895 48.1618 17 49.5468 17H57.0668V3H49.5468Z" stroke="#384F7D" stroke-miterlimit="10" stroke-linecap="square"/>
<path d="M32.8388 37H31.8688V31.48L29.4488 37H28.5488L26.1488 31.48V37H25.1788V29.91H26.5088L29.0088 35.68L31.5288 29.91H32.8388V37ZM35.8617 39.01H34.8317L36.0317 36.47L33.9617 32.19H35.0417L36.5417 35.51L37.9817 32.19H38.9917L35.8617 39.01ZM42.7361 29.91H45.0461C45.7061 29.91 46.2261 30.0867 46.6061 30.44C46.9927 30.7933 47.1861 31.2567 47.1861 31.83C47.1861 32.1967 47.0894 32.5133 46.8961 32.78C46.7027 33.0467 46.4461 33.24 46.1261 33.36C46.5194 33.46 46.8294 33.67 47.0561 33.99C47.2894 34.3033 47.4061 34.6633 47.4061 35.07C47.4061 35.63 47.2027 36.0933 46.7961 36.46C46.3894 36.82 45.8627 37 45.2161 37H42.7361V29.91ZM43.7161 33.01H44.9361C45.3227 33.01 45.6294 32.9067 45.8561 32.7C46.0827 32.4867 46.1961 32.2133 46.1961 31.88C46.1961 31.54 46.0794 31.27 45.8461 31.07C45.6127 30.87 45.2961 30.77 44.8961 30.77H43.7161V33.01ZM43.7161 36.14H45.0761C45.4761 36.14 45.7961 36.0367 46.0361 35.83C46.2827 35.6233 46.4061 35.35 46.4061 35.01C46.4061 34.6567 46.2961 34.3767 46.0761 34.17C45.8561 33.9567 45.5361 33.85 45.1161 33.85H43.7161V36.14ZM49.8105 35.86C50.1038 36.16 50.4605 36.31 50.8805 36.31C51.3005 36.31 51.6538 36.16 51.9405 35.86C52.2338 35.5533 52.3805 35.13 52.3805 34.59C52.3805 34.0567 52.2338 33.64 51.9405 33.34C51.6538 33.0333 51.3005 32.88 50.8805 32.88C50.4605 32.88 50.1038 33.0333 49.8105 33.34C49.5238 33.64 49.3805 34.0567 49.3805 34.59C49.3805 35.13 49.5238 35.5533 49.8105 35.86ZM49.1105 32.77C49.5772 32.2833 50.1672 32.04 50.8805 32.04C51.5938 32.04 52.1805 32.2833 52.6405 32.77C53.1072 33.25 53.3405 33.8567 53.3405 34.59C53.3405 35.33 53.1105 35.9433 52.6505 36.43C52.1905 36.91 51.6005 37.15 50.8805 37.15C50.1605 37.15 49.5705 36.91 49.1105 36.43C48.6505 35.9433 48.4205 35.33 48.4205 34.59C48.4205 33.8567 48.6505 33.25 49.1105 32.77ZM55.6532 35.86C55.9465 36.16 56.3032 36.31 56.7232 36.31C57.1432 36.31 57.4965 36.16 57.7832 35.86C58.0765 35.5533 58.2232 35.13 58.2232 34.59C58.2232 34.0567 58.0765 33.64 57.7832 33.34C57.4965 33.0333 57.1432 32.88 56.7232 32.88C56.3032 32.88 55.9465 33.0333 55.6532 33.34C55.3665 33.64 55.2232 34.0567 55.2232 34.59C55.2232 35.13 55.3665 35.5533 55.6532 35.86ZM54.9532 32.77C55.4198 32.2833 56.0098 32.04 56.7232 32.04C57.4365 32.04 58.0232 32.2833 58.4832 32.77C58.9498 33.25 59.1832 33.8567 59.1832 34.59C59.1832 35.33 58.9532 35.9433 58.4932 36.43C58.0332 36.91 57.4432 37.15 56.7232 37.15C56.0032 37.15 55.4132 36.91 54.9532 36.43C54.4932 35.9433 54.2632 35.33 54.2632 34.59C54.2632 33.8567 54.4932 33.25 54.9532 32.77ZM64.8158 32.19L62.7658 34.22L64.8558 37H63.6758L62.1058 34.88L61.4358 35.55V37H60.5058V29.76H61.4358V34.32L63.5158 32.19H64.8158ZM65.4297 35.75L66.2797 35.45C66.3131 35.71 66.4264 35.9267 66.6197 36.1C66.8131 36.2667 67.0731 36.35 67.3997 36.35C67.6531 36.35 67.8531 36.29 67.9997 36.17C68.1464 36.0433 68.2197 35.89 68.2197 35.71C68.2197 35.39 68.0131 35.1833 67.5997 35.09L66.7797 34.91C66.4064 34.83 66.1131 34.67 65.8997 34.43C65.6864 34.19 65.5797 33.9 65.5797 33.56C65.5797 33.1467 65.7464 32.79 66.0797 32.49C66.4197 32.19 66.8231 32.04 67.2897 32.04C67.5964 32.04 67.8697 32.0867 68.1097 32.18C68.3497 32.2667 68.5364 32.3833 68.6697 32.53C68.8031 32.6767 68.9031 32.8133 68.9697 32.94C69.0364 33.0667 69.0864 33.1967 69.1197 33.33L68.2897 33.64C68.2764 33.56 68.2531 33.4833 68.2197 33.41C68.1864 33.33 68.1331 33.2433 68.0597 33.15C67.9931 33.0567 67.8931 32.9833 67.7597 32.93C67.6264 32.87 67.4697 32.84 67.2897 32.84C67.0564 32.84 66.8631 32.9033 66.7097 33.03C66.5631 33.1567 66.4897 33.3067 66.4897 33.48C66.4897 33.7867 66.6731 33.98 67.0397 34.06L67.8197 34.23C68.2464 34.3233 68.5731 34.4967 68.7997 34.75C69.0331 34.9967 69.1497 35.3 69.1497 35.66C69.1497 36.04 68.9931 36.3833 68.6797 36.69C68.3731 36.9967 67.9431 37.15 67.3897 37.15C66.7964 37.15 66.3331 37.0033 65.9997 36.71C65.6664 36.41 65.4764 36.09 65.4297 35.75Z" fill="#384F7D"/>
</svg>
