<svg width="16" height="10" viewBox="0 0 16 10" fill="none" xmlns="http://www.w3.org/2000/svg">
<path fill-rule="evenodd" clip-rule="evenodd" d="M14.4011 0.296387H13.5011C13.004 0.296387 12.601 0.691337 12.601 1.17853V8.8238C12.601 9.311 13.004 9.70595 13.5011 9.70595H14.4011C14.8982 9.70595 15.3012 9.311 15.3012 8.8238V1.17853C15.3012 0.691337 14.8982 0.296387 14.4011 0.296387ZM9.30075 2.35472H10.2008C10.6979 2.35472 11.1009 2.74967 11.1009 3.23687V8.8238C11.1009 9.31099 10.6979 9.70594 10.2008 9.70594H9.30075C8.80365 9.70594 8.40067 9.31099 8.40067 8.8238V3.23687C8.40067 2.74967 8.80365 2.35472 9.30075 2.35472ZM6.00047 4.41307H5.1004C4.6033 4.41307 4.20032 4.80802 4.20032 5.29522V8.8238C4.20032 9.311 4.6033 9.70595 5.1004 9.70595H6.00047C6.49756 9.70595 6.90054 9.311 6.90054 8.8238V5.29522C6.90054 4.80802 6.49756 4.41307 6.00047 4.41307ZM1.80014 6.17737H0.900071C0.402976 6.17737 0 6.57232 0 7.05951V8.8238C0 9.311 0.402976 9.70595 0.900071 9.70595H1.80014C2.29724 9.70595 2.70021 9.311 2.70021 8.8238V7.05951C2.70021 6.57232 2.29724 6.17737 1.80014 6.17737Z" fill="white"/>
</svg>
