<svg width="94" height="49" viewBox="0 0 93 50" fill="none" xmlns="http://www.w3.org/2000/svg">
<path fill-rule="evenodd" clip-rule="evenodd" d="M0 0H93V40H0V0Z" fill="rgba(56, 79, 125, 0.45)" fill-opacity="0.01"/>
<path d="M54.8432 26.6487L53.6996 24.5428V19.3423C53.6996 16.1274 51.4989 13.4076 48.4978 12.556V9.96003C48.4978 8.87926 47.6017 8 46.5 8C45.3984 8 44.5022 8.87926 44.5022 9.96003V12.556C41.5012 13.4077 39.3004 16.1275 39.3004 19.3423V24.5428L38.1568 26.6487C37.9365 27.0542 37.949 27.5315 38.19 27.9255C38.4311 28.3194 38.8546 28.5546 39.323 28.5546H43.8633C43.9407 29.9158 45.0935 31 46.5 31C47.9065 31 49.0594 29.9158 49.1367 28.5546H53.6771C54.1454 28.5546 54.5689 28.3194 54.81 27.9255C55.051 27.5315 55.0634 27.0542 54.8432 26.6487ZM45.5593 9.96003C45.5593 9.45107 45.9813 9.03707 46.5 9.03707C47.0187 9.03707 47.4407 9.45107 47.4407 9.96003V12.3395C47.1327 12.2998 46.8187 12.2792 46.5 12.2792C46.1811 12.2792 45.8672 12.2999 45.5593 12.3395V9.96003ZM40.3575 19.3423C40.3575 16.0195 43.113 13.3161 46.5 13.3161C49.887 13.3161 52.6425 16.0195 52.6425 19.3423V24.1137H40.3575V19.3423ZM46.5 29.9629C45.6767 29.9629 44.9984 29.3434 44.9233 28.5546H48.0769C48.0017 29.3434 47.3233 29.9629 46.5 29.9629ZM53.9037 27.3917C53.8805 27.4296 53.8121 27.5176 53.6771 27.5176H39.323C39.188 27.5176 39.1195 27.4296 39.0964 27.3917C39.0733 27.3539 39.0263 27.2532 39.0898 27.1363L40.1681 25.1508H52.8321L53.9103 27.1363C53.9738 27.2532 53.9267 27.3539 53.9037 27.3917Z" fill="rgba(56, 79, 125, 0.45)" fill-opacity="0.45"/>
<path d="M46.4999 14.6982C43.8899 14.6982 41.7664 16.7815 41.7664 19.3422C41.7664 19.6285 42.003 19.8607 42.2949 19.8607C42.5868 19.8607 42.8234 19.6285 42.8234 19.3422C42.8234 17.3534 44.4727 15.7353 46.4999 15.7353C46.7918 15.7353 47.0285 15.5031 47.0285 15.2168C47.0285 14.9304 46.7918 14.6982 46.4999 14.6982Z" fill="rgba(56, 79, 125, 0.45)" fill-opacity="0.45"/>

</svg>
