<svg width="94" height="49" viewBox="0 0 94 49" fill="none" xmlns="http://www.w3.org/2000/svg">
<path fill-rule="evenodd" clip-rule="evenodd" d="M0 0H94V49H0V0Z" fill="rgba(56, 79, 125, 0.45)" fill-opacity="0.01"/>
<path d="M25.0596 44L24.2896 42.02H21.1496L20.3996 44H19.3496L22.1696 36.91H23.2996L26.1196 44H25.0596ZM22.7096 37.93L21.4996 41.11H23.9396L22.7096 37.93ZM27.6046 41.58C27.6046 42.0867 27.7279 42.5 27.9746 42.82C28.2279 43.14 28.5746 43.3 29.0146 43.3C29.4346 43.3 29.7713 43.1367 30.0246 42.81C30.2779 42.4833 30.4046 42.0667 30.4046 41.56C30.4046 41.06 30.2813 40.6567 30.0346 40.35C29.7879 40.0433 29.4513 39.89 29.0246 39.89C28.5979 39.89 28.2546 40.0467 27.9946 40.36C27.7346 40.6733 27.6046 41.08 27.6046 41.58ZM30.4146 43.35V43.27C30.2879 43.5167 30.0946 43.7233 29.8346 43.89C29.5813 44.05 29.2779 44.13 28.9246 44.13C28.2379 44.13 27.6846 43.89 27.2646 43.41C26.8513 42.9233 26.6446 42.3133 26.6446 41.58C26.6446 40.88 26.8579 40.2867 27.2846 39.8C27.7113 39.3067 28.2579 39.06 28.9246 39.06C29.3179 39.06 29.6379 39.14 29.8846 39.3C30.1313 39.4533 30.3013 39.6433 30.3946 39.87V36.76H31.3246V43.11C31.3246 43.4367 31.3413 43.7333 31.3746 44H30.4646C30.4313 43.8133 30.4146 43.5967 30.4146 43.35ZM33.6035 41.58C33.6035 42.0867 33.7269 42.5 33.9735 42.82C34.2269 43.14 34.5735 43.3 35.0135 43.3C35.4335 43.3 35.7702 43.1367 36.0235 42.81C36.2769 42.4833 36.4035 42.0667 36.4035 41.56C36.4035 41.06 36.2802 40.6567 36.0335 40.35C35.7869 40.0433 35.4502 39.89 35.0235 39.89C34.5969 39.89 34.2535 40.0467 33.9935 40.36C33.7335 40.6733 33.6035 41.08 33.6035 41.58ZM36.4135 43.35V43.27C36.2869 43.5167 36.0935 43.7233 35.8335 43.89C35.5802 44.05 35.2769 44.13 34.9235 44.13C34.2369 44.13 33.6835 43.89 33.2635 43.41C32.8502 42.9233 32.6435 42.3133 32.6435 41.58C32.6435 40.88 32.8569 40.2867 33.2835 39.8C33.7102 39.3067 34.2569 39.06 34.9235 39.06C35.3169 39.06 35.6369 39.14 35.8835 39.3C36.1302 39.4533 36.3002 39.6433 36.3935 39.87V36.76H37.3235V43.11C37.3235 43.4367 37.3402 43.7333 37.3735 44H36.4635C36.4302 43.8133 36.4135 43.5967 36.4135 43.35ZM45.4324 44L43.8124 41.1H42.7524V44H41.7624V36.91H44.4324C45.0858 36.91 45.6091 37.1133 46.0024 37.52C46.4024 37.92 46.6024 38.42 46.6024 39.02C46.6024 39.5333 46.4491 39.9733 46.1424 40.34C45.8358 40.7 45.4158 40.93 44.8824 41.03L46.5724 44H45.4324ZM42.7524 40.22H44.2524C44.6524 40.22 44.9758 40.1133 45.2224 39.9C45.4691 39.68 45.5924 39.3867 45.5924 39.02C45.5924 38.6467 45.4691 38.35 45.2224 38.13C44.9758 37.9033 44.6524 37.79 44.2524 37.79H42.7524V40.22ZM48.3885 41.1H51.0185C51.0052 40.74 50.8852 40.4467 50.6585 40.22C50.4318 39.9867 50.1118 39.87 49.6985 39.87C49.3252 39.87 49.0185 39.9933 48.7785 40.24C48.5385 40.48 48.4085 40.7667 48.3885 41.1ZM51.1585 42.35L51.9685 42.63C51.8285 43.0767 51.5685 43.4433 51.1885 43.73C50.8085 44.01 50.3485 44.15 49.8085 44.15C49.1352 44.15 48.5618 43.92 48.0885 43.46C47.6218 42.9933 47.3885 42.3667 47.3885 41.58C47.3885 40.8467 47.6152 40.24 48.0685 39.76C48.5218 39.28 49.0618 39.04 49.6885 39.04C50.4152 39.04 50.9818 39.27 51.3885 39.73C51.7952 40.1833 51.9985 40.7933 51.9985 41.56C51.9985 41.68 51.9918 41.78 51.9785 41.86H48.3585C48.3652 42.2867 48.5052 42.6367 48.7785 42.91C49.0585 43.1833 49.4018 43.32 49.8085 43.32C50.4952 43.32 50.9452 42.9967 51.1585 42.35ZM57.3408 39.19L55.4208 44H54.4708L52.5208 39.19H53.5808L54.9508 42.9L56.3308 39.19H57.3408ZM59.2903 44H58.3603V39.19H59.2903V44ZM58.3403 37.85C58.2136 37.7167 58.1503 37.5567 58.1503 37.37C58.1503 37.1833 58.2136 37.0233 58.3403 36.89C58.4736 36.7567 58.6336 36.69 58.8203 36.69C59.007 36.69 59.167 36.7567 59.3003 36.89C59.4336 37.0167 59.5003 37.1767 59.5003 37.37C59.5003 37.5567 59.4336 37.7167 59.3003 37.85C59.167 37.9767 59.007 38.04 58.8203 38.04C58.6336 38.04 58.4736 37.9767 58.3403 37.85ZM61.6196 41.1H64.2496C64.2363 40.74 64.1163 40.4467 63.8896 40.22C63.6629 39.9867 63.3429 39.87 62.9296 39.87C62.5563 39.87 62.2496 39.9933 62.0096 40.24C61.7696 40.48 61.6396 40.7667 61.6196 41.1ZM64.3896 42.35L65.1996 42.63C65.0596 43.0767 64.7996 43.4433 64.4196 43.73C64.0396 44.01 63.5796 44.15 63.0396 44.15C62.3663 44.15 61.7929 43.92 61.3196 43.46C60.8529 42.9933 60.6196 42.3667 60.6196 41.58C60.6196 40.8467 60.8463 40.24 61.2996 39.76C61.7529 39.28 62.2929 39.04 62.9196 39.04C63.6463 39.04 64.2129 39.27 64.6196 39.73C65.0263 40.1833 65.2296 40.7933 65.2296 41.56C65.2296 41.68 65.2229 41.78 65.2096 41.86H61.5896C61.5963 42.2867 61.7363 42.6367 62.0096 42.91C62.2896 43.1833 62.6329 43.32 63.0396 43.32C63.7263 43.32 64.1763 42.9967 64.3896 42.35ZM69.2107 39.19H70.1807L71.4307 42.81L72.4907 39.19H73.4807L71.9207 44H70.9507L69.6707 40.34L68.4207 44H67.4307L65.8507 39.19H66.8807L67.9607 42.81L69.2107 39.19Z" fill="rgba(56, 79, 125, 0.45)" fill-opacity="0.45"/>
<path d="M51.625 27.375C53.6961 27.375 55.375 25.6961 55.375 23.625C55.375 21.5539 53.6961 19.875 51.625 19.875C49.5539 19.875 47.875 21.5539 47.875 23.625C47.875 25.6961 49.5539 27.375 51.625 27.375Z" stroke="rgba(56, 79, 125, 0.45)" stroke-miterlimit="10" stroke-linecap="square"/>
<path d="M51.625 22.375V24.875" stroke="rgba(56, 79, 125, 0.45)" stroke-miterlimit="10" stroke-linecap="square"/>
<path d="M50.375 23.625H52.875" stroke="rgba(56, 79, 125, 0.45)" stroke-miterlimit="10" stroke-linecap="square"/>
<path d="M45.375 23.3788L40.5925 25.8925L41.625 19.8706L37.25 15.6063L43.2962 14.7275L46 9.25L48.7038 14.7275L54.75 15.6063L52.875 17.4338" stroke="rgba(56, 79, 125, 0.45)" stroke-miterlimit="10" stroke-linecap="square"/>
</svg>
