<svg width="94" height="49" viewBox="0 0 93 49" fill="none" xmlns="http://www.w3.org/2000/svg">
<path fill-rule="evenodd" clip-rule="evenodd" d="M0 0H93V49H0V0Z" fill="rgba(56, 79, 125, 0.45)" fill-opacity="0.01"/>
<path d="M32.6652 37.82H30.2952V44H29.3152V37.82H26.9452V36.91H32.6652V37.82ZM34.4179 44H33.4879V39.19H34.4179V44ZM33.4679 37.85C33.3412 37.7167 33.2779 37.5567 33.2779 37.37C33.2779 37.1833 33.3412 37.0233 33.4679 36.89C33.6012 36.7567 33.7612 36.69 33.9479 36.69C34.1345 36.69 34.2945 36.7567 34.4279 36.89C34.5612 37.0167 34.6279 37.1767 34.6279 37.37C34.6279 37.5567 34.5612 37.7167 34.4279 37.85C34.2945 37.9767 34.1345 38.04 33.9479 38.04C33.7612 38.04 33.6012 37.9767 33.4679 37.85ZM37.0671 44H36.1371V39.19H37.0371V39.83C37.1838 39.5767 37.3905 39.3833 37.6571 39.25C37.9238 39.1167 38.2038 39.05 38.4971 39.05C38.8105 39.05 39.0971 39.1267 39.3571 39.28C39.6171 39.4333 39.8105 39.66 39.9371 39.96C40.2705 39.3533 40.8071 39.05 41.5471 39.05C42.0071 39.05 42.3971 39.2067 42.7171 39.52C43.0438 39.8333 43.2071 40.2867 43.2071 40.88V44H42.2771V40.98C42.2771 40.6467 42.1905 40.38 42.0171 40.18C41.8505 39.98 41.5971 39.88 41.2571 39.88C40.9305 39.88 40.6638 39.9967 40.4571 40.23C40.2505 40.4567 40.1471 40.7433 40.1471 41.09V44H39.2071V40.98C39.2071 40.6467 39.1205 40.38 38.9471 40.18C38.7805 39.98 38.5271 39.88 38.1871 39.88C37.8538 39.88 37.5838 39.9933 37.3771 40.22C37.1705 40.4467 37.0671 40.74 37.0671 41.1V44ZM45.4414 41.1H48.0714C48.058 40.74 47.938 40.4467 47.7114 40.22C47.4847 39.9867 47.1647 39.87 46.7514 39.87C46.378 39.87 46.0714 39.9933 45.8314 40.24C45.5914 40.48 45.4614 40.7667 45.4414 41.1ZM48.2114 42.35L49.0214 42.63C48.8814 43.0767 48.6214 43.4433 48.2414 43.73C47.8614 44.01 47.4014 44.15 46.8614 44.15C46.188 44.15 45.6147 43.92 45.1414 43.46C44.6747 42.9933 44.4414 42.3667 44.4414 41.58C44.4414 40.8467 44.668 40.24 45.1214 39.76C45.5747 39.28 46.1147 39.04 46.7414 39.04C47.468 39.04 48.0347 39.27 48.4414 39.73C48.848 40.1833 49.0514 40.7933 49.0514 41.56C49.0514 41.68 49.0447 41.78 49.0314 41.86H45.4114C45.418 42.2867 45.558 42.6367 45.8314 42.91C46.1114 43.1833 46.4547 43.32 46.8614 43.32C47.548 43.32 47.998 42.9967 48.2114 42.35ZM51.3113 44H50.3713V36.76H51.3113V44ZM53.9604 44H53.0304V39.19H53.9604V44ZM53.0104 37.85C52.8837 37.7167 52.8204 37.5567 52.8204 37.37C52.8204 37.1833 52.8837 37.0233 53.0104 36.89C53.1437 36.7567 53.3037 36.69 53.4904 36.69C53.677 36.69 53.837 36.7567 53.9704 36.89C54.1037 37.0167 54.1704 37.1767 54.1704 37.37C54.1704 37.5567 54.1037 37.7167 53.9704 37.85C53.837 37.9767 53.677 38.04 53.4904 38.04C53.3037 38.04 53.1437 37.9767 53.0104 37.85ZM56.6196 41.22V44H55.6796V39.19H56.5996V39.88C56.9196 39.3267 57.413 39.05 58.0796 39.05C58.633 39.05 59.0563 39.2267 59.3496 39.58C59.6496 39.9333 59.7996 40.39 59.7996 40.95V44H58.8596V41.11C58.8596 40.3033 58.4863 39.9 57.7396 39.9C57.3863 39.9 57.1096 40.0267 56.9096 40.28C56.7163 40.5267 56.6196 40.84 56.6196 41.22ZM62.0249 41.1H64.6549C64.6416 40.74 64.5216 40.4467 64.2949 40.22C64.0682 39.9867 63.7482 39.87 63.3349 39.87C62.9616 39.87 62.6549 39.9933 62.4149 40.24C62.1749 40.48 62.0449 40.7667 62.0249 41.1ZM64.7949 42.35L65.6049 42.63C65.4649 43.0767 65.2049 43.4433 64.8249 43.73C64.4449 44.01 63.9849 44.15 63.4449 44.15C62.7716 44.15 62.1982 43.92 61.7249 43.46C61.2582 42.9933 61.0249 42.3667 61.0249 41.58C61.0249 40.8467 61.2516 40.24 61.7049 39.76C62.1582 39.28 62.6982 39.04 63.3249 39.04C64.0516 39.04 64.6182 39.27 65.0249 39.73C65.4316 40.1833 65.6349 40.7933 65.6349 41.56C65.6349 41.68 65.6282 41.78 65.6149 41.86H61.9949C62.0016 42.2867 62.1416 42.6367 62.4149 42.91C62.6949 43.1833 63.0382 43.32 63.4449 43.32C64.1316 43.32 64.5816 42.9967 64.7949 42.35Z" fill="rgba(56, 79, 125, 0.45)" fill-opacity="0.45"/>
<path d="M54.5183 17.9193C54.2524 17.9193 54.0367 18.1362 54.0367 18.4036V27.0315H48.8682V21.6155C48.8682 21.3481 48.6525 21.1312 48.3865 21.1312H44.6136C44.3476 21.1312 44.1319 21.3481 44.1319 21.6155V25.91C44.1319 26.1774 44.3476 26.3943 44.6136 26.3943C44.8795 26.3943 45.0952 26.1774 45.0952 25.91V22.0997H47.9049V27.0315H38.9633V15.1778L46.5 9.10501L54.2171 15.3232C54.4247 15.4905 54.7278 15.4568 54.8941 15.2481C55.0604 15.0394 55.0271 14.7347 54.8195 14.5674L46.8012 8.10642C46.6252 7.96453 46.3747 7.96453 46.1988 8.10642L38.1805 14.5674C38.0664 14.6593 38 14.7982 38 14.9453V27.5157C38 27.7831 38.2156 28 38.4817 28H54.5183C54.7844 28 55 27.7831 55 27.5157V18.4036C55 18.1361 54.7844 17.9193 54.5183 17.9193Z" fill="rgba(56, 79, 125, 0.45)" fill-opacity="0.45"/>
</svg>
