<svg width="15" height="10" viewBox="0 0 15 10" fill="none" xmlns="http://www.w3.org/2000/svg">
<path fill-rule="evenodd" clip-rule="evenodd" d="M7.69942 2.00894C9.69388 2.00902 11.6121 2.76011 13.0575 4.10697C13.1664 4.21096 13.3404 4.20964 13.4476 4.10403L14.4881 3.07486C14.5423 3.0213 14.5726 2.94874 14.5722 2.87324C14.5717 2.79775 14.5406 2.72554 14.4857 2.6726C10.6918 -0.890868 4.70647 -0.890868 0.91258 2.6726C0.857623 2.7255 0.826441 2.79769 0.825934 2.87318C0.825427 2.94868 0.855637 3.02126 0.90988 3.07486L1.95066 4.10403C2.0578 4.2098 2.23191 4.21112 2.34069 4.10697C3.78634 2.76003 5.70476 2.00893 7.69942 2.00894ZM7.69943 5.35727C8.79525 5.3572 9.85198 5.7564 10.6643 6.4773C10.7741 6.57961 10.9472 6.57739 11.0543 6.4723L12.0936 5.44313C12.1483 5.38915 12.1787 5.31591 12.1779 5.23981C12.1771 5.16372 12.1452 5.0911 12.0894 5.03822C9.6158 2.78312 5.78515 2.78312 3.31158 5.03822C3.25571 5.0911 3.22383 5.16375 3.22309 5.23987C3.22236 5.316 3.25283 5.38922 3.30768 5.44313L4.34666 6.4723C4.45376 6.57739 4.62683 6.57961 4.73669 6.4773C5.54844 5.75688 6.60432 5.35771 7.69943 5.35727ZM9.78129 7.61012C9.78288 7.68643 9.75227 7.76 9.69669 7.81346L7.89895 9.59158C7.84625 9.64384 7.7744 9.67324 7.69943 9.67324C7.62446 9.67324 7.55261 9.64384 7.49992 9.59158L5.70187 7.81346C5.64633 7.75996 5.61577 7.68637 5.61742 7.61005C5.61907 7.53374 5.65277 7.46148 5.71057 7.41032C6.85868 6.45859 8.54018 6.45859 9.68829 7.41032C9.74605 7.46152 9.7797 7.5338 9.78129 7.61012Z" fill="white"/>
</svg>
